<svg width="512" height="512" viewBox="0 0 512 512" fill="none" xmlns="http://www.w3.org/2000/svg">
<g clip-path="url(#clip0)">
<rect width="512" height="512" fill="white"/>
<path d="M264.875 383.5C241.625 383.5 220.625 378.25 201.875 367.75C183.5 357.25 169.062 342.812 158.562 324.438C148.062 305.688 142.812 284.312 142.812 260.312C142.812 234.062 148.625 211.188 160.25 191.688C171.875 171.812 187.062 156.438 205.812 145.562C224.562 134.312 244.625 128.875 266 129.25C298.625 129.625 323.562 139.938 340.812 160.188C358.062 180.438 366.688 206.875 366.688 239.5V251.875H200.188V223.75H317.188L309.312 235.562V218.688C309.312 199.938 305 185.125 296.375 174.25C288.125 163.375 276.5 157.938 261.5 157.938C251.75 157.938 242.75 160.75 234.5 166.375C226.625 172 220.25 180.438 215.375 191.688C210.5 202.938 208.062 217 208.062 233.875V244C208.062 271.75 215.188 293.875 229.438 310.375C244.062 326.5 263.375 334.562 287.375 334.562C300.125 334.562 311.562 332.312 321.688 327.812C332.188 322.938 342.5 314.875 352.625 303.625L368.938 318.25C358.438 340 344 356.312 325.625 367.188C307.25 378.062 287 383.5 264.875 383.5Z" fill="black"/>
</g>
<defs>
<clipPath id="clip0">
<rect width="512" height="512" fill="white"/>
</clipPath>
</defs>
</svg>
